<svg width="55" height="55" viewBox="0 0 55 55" fill="none" xmlns="http://www.w3.org/2000/svg">
<circle cx="27.5" cy="27.5" r="27.5" fill="black"/>
<path fill-rule="evenodd" clip-rule="evenodd" d="M25.0098 10.7002C25.1021 9.89811 25.7391 9.26778 26.542 9.18382L37.177 8.07177C37.1843 8.07101 37.1903 8.07716 37.1895 8.08441V8.08441C37.1891 8.08784 37.1903 8.09127 37.1927 8.09373L37.9007 8.8091C38.7199 9.63689 38.7129 10.972 37.8851 11.7912L32.6354 16.9865C31.0095 18.5955 30.9958 21.2179 32.6048 22.8438L33.8954 24.1479C34.7916 25.0535 36.2523 25.0612 37.158 24.1649L37.5855 23.7418C38.9926 22.3493 37.8624 19.9621 35.8935 20.168L35.4311 20.2164C34.3349 20.331 33.4145 19.4009 33.5405 18.306V18.306C33.6329 17.5039 34.2698 16.8736 35.0728 16.7896L45.7077 15.6776C45.715 15.6768 45.7211 15.683 45.7203 15.6902V15.6902C45.7199 15.6937 45.7211 15.6971 45.7235 15.6995L46.4315 16.415C47.2506 17.2427 47.2437 18.5778 46.4159 19.397L39.1615 26.576C38.3626 27.3667 38.3559 28.6552 39.1465 29.4541V29.4541C40.4988 30.8206 42.8171 29.723 42.6172 27.8109L42.5509 27.1774C42.4363 26.0811 43.3664 25.1607 44.4613 25.2868V25.2868C45.2634 25.3791 45.8937 26.0161 45.9777 26.8191L47.0897 37.454C47.0905 37.4613 47.0843 37.4674 47.077 37.4665V37.4665C47.0736 37.4661 47.0702 37.4673 47.0677 37.4698L46.3524 38.1777C45.5246 38.9969 44.1894 38.9899 43.3702 38.1621L38.3966 33.1364C36.7942 31.5171 34.1824 31.5034 32.5631 33.1059L31.2002 34.4547C30.3336 35.3123 30.3263 36.7099 31.1839 37.5765L31.4077 37.8026C32.8001 39.2097 35.1873 38.0795 34.9815 36.1106L34.9331 35.6482C34.8185 34.552 35.7485 33.6316 36.8435 33.7576V33.7576C37.6456 33.85 38.2759 34.4869 38.3599 35.2899L39.4719 45.9248C39.4727 45.9321 39.4665 45.9382 39.4592 45.9373V45.9373C39.4558 45.9369 39.4523 45.9381 39.4499 45.9406L38.7346 46.6484C37.9067 47.4677 36.5716 47.4607 35.7523 46.6329L28.7183 39.525C27.9964 38.7956 26.8199 38.7894 26.0905 39.5113V39.5113C24.8429 40.746 25.845 42.8627 27.5908 42.6801L28.8689 42.5465C29.9651 42.4318 30.8855 43.3619 30.7595 44.4569V44.4569C30.6671 45.2589 30.0302 45.8893 29.2272 45.9732L18.6267 47.0817C18.6018 47.0843 18.5808 47.0631 18.5837 47.0382L18.5859 47.0194C18.5894 46.9889 18.5525 46.971 18.5307 46.9926V46.9926C18.5179 47.0052 18.4974 47.0051 18.4847 46.9924L17.4092 45.9055C16.8026 45.2925 16.8077 44.3038 17.4207 43.6972L22.2705 38.8978C23.8964 37.2888 23.9101 34.6664 22.3011 33.0405L20.8253 31.5492C20.0313 30.7469 18.7373 30.7401 17.9351 31.5341V31.5341C16.5628 32.8921 17.665 35.2202 19.5852 35.0194L20.3382 34.9407C21.4344 34.826 22.3548 35.7561 22.2287 36.8511V36.8511C22.1364 37.6531 21.4994 38.2834 20.6965 38.3674L10.0959 39.4759C10.071 39.4785 10.0501 39.4573 10.053 39.4324L10.0551 39.4136C10.0586 39.3831 10.0218 39.3652 9.99995 39.3868V39.3868C9.98719 39.3994 9.9666 39.3993 9.95397 39.3865L8.87843 38.2997C8.2718 37.6867 8.27696 36.698 8.88996 36.0914L15.8056 29.2476C16.5707 28.4904 16.5771 27.2564 15.82 26.4913V26.4913C14.5249 25.1827 12.3048 26.2338 12.4962 28.065L12.603 29.086C12.7176 30.1822 11.7876 31.1026 10.6926 30.9766V30.9766C9.89054 30.8842 9.2602 30.2473 9.17624 29.4443L8.06779 18.8438C8.06518 18.8188 8.08632 18.7979 8.11121 18.8008L8.13 18.8029C8.16051 18.8065 8.17843 18.7696 8.15683 18.7478V18.7478C8.1442 18.735 8.14431 18.7144 8.15707 18.7018L9.24389 17.6263C9.85689 17.0196 10.8456 17.0248 11.4522 17.6378L16.5092 22.7479C18.1117 24.3672 20.7235 24.3808 22.3428 22.7783L23.767 21.3689C24.5997 20.5448 24.6067 19.2017 23.7826 18.369V18.369C22.3731 16.9446 19.9566 18.0887 20.165 20.0817L20.2208 20.6152C20.3354 21.7114 19.4054 22.6318 18.3104 22.5058V22.5058C17.5084 22.4134 16.878 21.7765 16.7941 20.9735L15.6856 10.373C15.683 10.348 15.7041 10.3271 15.729 10.33L15.7478 10.3321C15.7783 10.3357 15.7963 10.2988 15.7746 10.277V10.277C15.762 10.2642 15.7621 10.2436 15.7749 10.231L16.8617 9.15545C17.4747 8.54882 18.4634 8.55398 19.07 9.16698L26.0024 16.1721C26.8265 17.0048 28.1834 16.9983 29.0162 16.1741V16.1741C30.4233 14.7817 29.3317 12.3563 27.3628 12.5622L26.9004 12.6106C25.8041 12.7252 24.8837 11.7951 25.0098 10.7002V10.7002ZM24.5396 24.9982C22.9203 26.6006 22.9185 29.2244 24.5209 30.8437V30.8437C26.1234 32.4629 28.747 32.4885 30.3663 30.8861V30.8861C31.9856 29.2836 31.9874 26.6599 30.3849 25.0406V25.0406C28.7825 23.4213 26.1589 23.3957 24.5396 24.9982V24.9982Z" fill="url(#paint0_linear_708_6056)"/>
<defs>
<linearGradient id="paint0_linear_708_6056" x1="12.0523" y1="14.8453" x2="40.7369" y2="40.4726" gradientUnits="userSpaceOnUse">
<stop stop-color="#A10100"/>
<stop offset="0.184996" stop-color="#DA1F05"/>
<stop offset="0.388896" stop-color="#F33C04"/>
<stop offset="0.598023" stop-color="#FE650D"/>
<stop offset="0.791466" stop-color="#FFC11F"/>
<stop offset="1" stop-color="#FFF75D"/>
</linearGradient>
</defs>
</svg>
